<svg width="100" height="100" viewBox="0 0 100 100" fill="none" xmlns="http://www.w3.org/2000/svg">
<path d="M0 20C0 8.9543 8.95431 0 20 0H80C91.0457 0 100 8.95431 100 20V80C100 91.0457 91.0457 100 80 100H20C8.9543 100 0 91.0457 0 80V20Z" fill="black"/>
<path d="M62.8336 65.775C56.3964 68.619 49.4228 67.4537 46.7407 66.5156C46.7407 67.1575 46.7114 69.1522 46.5944 71.9961C46.4774 74.8401 45.5703 76.6373 45.1314 77.1804C45.1801 78.9579 45.2192 82.8387 44.9851 84.1422C44.751 85.4456 43.9122 86.5615 43.5221 86.9565H39.572C39.9231 85.179 41.2788 84.0434 41.9128 83.6978C42.2639 80.0244 41.5714 76.8348 41.1813 75.6992C40.7912 77.0817 39.8353 80.291 39.1331 82.0685C38.4309 83.8459 37.3775 85.4753 36.9386 86.0678H34.0126C33.8663 84.2903 34.8416 83.6978 35.4756 83.6978C35.7682 83.1547 36.4704 81.4464 36.9386 78.9579C37.4068 76.4694 36.7435 71.7986 36.3534 69.7743V63.405C31.6718 60.887 29.9162 58.3689 28.7458 55.5546C27.8095 53.3031 28.0631 49.8765 28.3069 48.4447C28.0143 47.9016 27.1612 46.5212 26.8439 44.5935C26.405 41.9273 26.6488 40.0017 26.8439 38.9649C26.5513 38.6686 25.9661 37.1578 25.9661 33.4843C25.9661 29.8109 27.039 27.9051 27.5754 27.4113V25.782C25.5272 25.6339 23.479 24.7451 22.3086 23.5601C21.1382 22.3752 22.016 20.5977 22.7475 20.0052C23.479 19.4127 24.2105 19.8571 25.2346 19.5608C26.2587 19.2646 27.1365 18.9683 27.5754 18.0796C27.9265 17.3686 27.234 14.4259 26.8439 13.0435C28.5995 13.2805 29.7211 14.8209 30.0625 15.5615V13.0435C32.257 14.0803 36.2071 16.5984 37.5238 22.0789C38.5771 26.4633 39.3281 35.6568 39.572 39.7055C45.1801 39.7549 52.3 38.9013 58.7372 40.298C64.5892 41.5677 67.2226 44.1492 70.2949 44.1492C73.3672 44.1492 75.1228 42.3717 77.3173 43.8529C79.5118 45.3341 80.6822 49.4816 80.3896 52.5921C80.1555 55.0806 78.2439 55.9002 77.3173 55.999C76.1469 59.9094 77.3173 63.6519 78.0488 65.0344V70.6631C78.3902 71.1568 79.0729 72.6775 79.0729 74.8105C79.0729 76.9435 78.3902 78.3654 78.0488 78.8098C78.634 82.1277 77.805 85.5247 77.3173 86.8084H73.3672C73.8354 85.6234 74.6351 85.3272 74.9765 85.3272C75.6787 81.6537 75.1716 78.2667 74.8302 77.0323C72.6064 75.7288 71.1727 73.428 70.7338 72.4405C70.7826 73.2799 70.646 75.6104 69.7097 78.2173C68.7734 80.8243 67.3689 82.3647 66.7837 82.8091V85.9197H62.8336C62.8336 84.0237 63.9065 83.6485 64.4429 83.6978C65.1257 82.4635 66.7837 80.5873 66.7837 76.8842C66.7837 73.7596 64.5892 72.2924 62.9799 69.4781C62.2153 68.141 62.5898 66.4663 62.8336 65.775Z" fill="url(#paint0_linear_3021_4401)"/>
<defs>
<linearGradient id="paint0_linear_3021_4401" x1="26.4199" y1="19.2646" x2="89.8259" y2="72.3593" gradientUnits="userSpaceOnUse">
<stop offset="0.0619804" stop-color="#F6DCD9"/>
<stop offset="0.325677" stop-color="#FFA5EA"/>
<stop offset="0.589257" stop-color="#45DFF8"/>
<stop offset="1" stop-color="#BC8DEB"/>
</linearGradient>
</defs>
</svg>
